<svg width="55" height="54" viewBox="0 0 55 54" fill="none" xmlns="http://www.w3.org/2000/svg">
<path d="M36.4621 26.5749C36.4607 25.8563 36.3508 25.0745 36.1323 24.2295L38.8651 24.2243L38.8894 37.0321C38.8901 37.3702 38.7713 37.6452 38.5331 37.857C38.295 38.0688 38.0024 38.1751 37.6554 38.1757L16.2486 38.2164C15.9016 38.2171 15.6195 38.1119 15.4022 37.901C15.1849 37.6901 15.0759 37.4155 15.0753 37.0774L15.0509 24.2696L17.7186 24.2646C17.5033 25.1104 17.3964 25.8926 17.3978 26.6111C17.4002 27.8792 17.6519 29.0834 18.1529 30.2238C18.6539 31.3641 19.339 32.3456 20.2081 33.1682C21.0772 33.9908 22.0978 34.6441 23.2699 35.1279C24.442 35.6118 25.6787 35.8525 26.9801 35.85C28.2814 35.8476 29.5172 35.6022 30.6874 35.1138C31.8577 34.6255 32.865 33.9684 33.7093 33.1425C34.5536 32.3167 35.2241 31.3326 35.7207 30.1904C36.2174 29.0482 36.4645 27.843 36.4621 26.5749ZM26.9734 32.3628C26.1493 32.3643 25.3682 32.2179 24.6302 31.9234C23.8922 31.6289 23.2516 31.218 22.7084 30.6907C22.1652 30.1633 21.7411 29.5512 21.4361 28.8543C21.1312 28.1575 20.9779 27.4075 20.9764 26.6043C20.9749 25.8012 21.1252 25.0401 21.4275 24.3209C21.7298 23.6017 22.1515 22.9775 22.6927 22.4481C23.234 21.9187 23.873 21.5053 24.6098 21.208C25.3467 20.9107 26.1272 20.7613 26.9514 20.7597C27.7755 20.7582 28.5458 20.9046 29.2621 21.1992C29.9784 21.4937 30.6081 21.9046 31.1513 22.432C31.6946 22.9593 32.1187 23.582 32.4237 24.3C32.7287 25.018 32.882 25.7786 32.8835 26.5817C32.885 27.3848 32.7346 28.1354 32.4323 28.8334C32.13 29.5315 31.7082 30.1452 31.167 30.6746C30.6258 31.204 29.9976 31.6173 29.2824 31.9146C28.5673 32.2118 27.7976 32.3612 26.9734 32.3628ZM37.6112 14.9696C37.9583 14.969 38.2513 15.0741 38.4902 15.285C38.7292 15.4959 38.849 15.7704 38.8497 16.1086L38.8563 19.5958C38.8569 19.934 38.7382 20.2089 38.5 20.4208C38.2618 20.6326 37.9692 20.7388 37.6222 20.7394L34.0436 20.7462C33.6966 20.7469 33.4144 20.6418 33.1971 20.4308C32.9798 20.2199 32.8709 19.9453 32.8702 19.6072L32.8636 16.1199C32.8629 15.7818 32.9709 15.5068 33.1874 15.2951C33.4038 15.0833 33.6856 14.9771 34.0326 14.9764L37.6112 14.9696ZM40.771 7.23506e-05C42.6363 -0.00347392 44.4045 0.341891 46.0759 1.03617C47.7473 1.73044 49.2022 2.67875 50.4407 3.88109C51.6793 5.08342 52.658 6.48704 53.3767 8.09193C54.0955 9.69682 54.4566 11.4081 54.4601 13.2257L54.5105 39.7288C54.5139 41.5464 54.1594 43.2696 53.4467 44.8983C52.7341 46.5271 51.7608 47.9449 50.5268 49.152C49.2929 50.359 47.8415 51.3129 46.1728 52.0135C44.5041 52.7141 42.7372 53.0662 40.8719 53.0697L13.6743 53.1214C11.8091 53.125 10.0516 52.7796 8.40197 52.0853C6.75231 51.391 5.3082 50.4426 4.06966 49.2403C2.83111 48.038 1.85243 46.6238 1.13361 44.9978C0.414787 43.3717 0.0536489 41.6499 0.0501932 39.8323L-0.000196028 13.3292C-0.00365175 11.5116 0.350957 9.799 1.06363 8.19139C1.7763 6.58378 2.74962 5.17645 3.98359 3.96941C5.21755 2.76237 6.65804 1.80856 8.30505 1.10798C9.95207 0.407394 11.7082 0.0553282 13.5734 0.0517819L40.771 7.23506e-05ZM42.4261 14.9605C42.4243 13.9883 42.0757 13.1647 41.3804 12.4897C40.685 11.8147 39.8385 11.4781 38.8409 11.48L15.0267 11.5253C14.029 11.5272 13.1838 11.867 12.491 12.5446C11.7983 13.2222 11.4528 14.0472 11.4547 15.0194L11.4988 38.2254C11.5007 39.1976 11.8492 40.0212 12.5446 40.6962C13.2399 41.3712 14.0864 41.7078 15.0841 41.7059L38.8982 41.6606C39.8959 41.6587 40.7411 41.319 41.4339 40.6413C42.1266 39.9637 42.4721 39.1388 42.4702 38.1666L42.4261 14.9605Z" fill="white"/>
</svg>
