<svg width="32" height="37" viewBox="0 0 32 37" fill="none" xmlns="http://www.w3.org/2000/svg">
<path d="M15.9445 0C18.1516 0 20.2255 0.478257 22.1662 1.43477C24.107 2.39128 25.8004 3.69562 27.2464 5.34778C28.6924 6.99994 29.8341 8.92746 30.6712 11.1303C31.5084 13.3332 31.927 15.6955 31.927 18.2172C31.927 20.739 31.5084 23.1085 30.6712 25.3259C29.8341 27.5433 28.6924 29.478 27.2464 31.1302C25.8004 32.7823 24.107 34.0867 22.1662 35.0432C20.2255 35.9997 18.1516 36.478 15.9445 36.478C13.7374 36.478 11.6698 35.9997 9.74173 35.0432C7.81368 34.0867 6.12664 32.7823 4.6806 31.1302C3.23456 29.478 2.09295 27.5433 1.25577 25.3259C0.41859 23.1085 0 20.739 0 18.2172C0 15.6955 0.41859 13.3332 1.25577 11.1303C2.09295 8.92746 3.23456 6.99994 4.6806 5.34778C6.12664 3.69562 7.81368 2.39128 9.74173 1.43477C11.6698 0.478257 13.7374 0 15.9445 0ZM21.9569 7.95646H18.5702C17.9106 7.95646 17.3017 8.08689 16.7436 8.34776C16.1855 8.60863 15.6971 8.95645 15.2785 9.39123C14.8599 9.82601 14.5365 10.3188 14.3082 10.8695C14.0798 11.4202 13.9657 11.9709 13.9657 12.5216V14.826H10.9594V19.3477H13.9657V28.478H17.9613V19.3477H20.9295V14.826H17.9613V13.6521C17.9613 13.3042 18.0818 13.0289 18.3228 12.826C18.5638 12.6231 18.7731 12.5216 18.9507 12.5216H21.9569V7.95646Z" fill="#79AC78"/>
</svg>
