<svg width="55" height="44" viewBox="0 0 55 44" fill="none" xmlns="http://www.w3.org/2000/svg">
<path d="M54.3973 5.10401C52.7913 7.38964 50.9282 9.24777 48.8081 10.6784L48.811 12.1763C48.8178 15.7429 48.1292 19.3642 46.7454 23.0403C45.3616 26.7165 43.3367 30.0372 40.6705 33.0025C38.0044 35.9678 34.6967 38.3993 30.7475 40.2971C26.7984 42.1948 22.2618 43.1486 17.1379 43.1583C13.9171 43.1644 10.8785 42.7422 8.02211 41.8917C5.16571 41.0412 2.49163 39.8336 -0.000131069 38.2691C0.4392 38.3396 0.878498 38.3923 1.31776 38.4271C1.75703 38.4619 2.19626 38.4789 2.63545 38.4781C5.27063 38.4731 7.77689 38.0403 10.1542 37.1798C12.5316 36.3194 14.6705 35.174 16.571 33.7438C14.0821 33.6772 11.903 32.9502 10.0338 31.5628C8.16453 30.1754 6.86182 28.3768 6.12562 26.1669C6.49189 26.3089 6.83972 26.3796 7.16912 26.3789L8.21221 26.377C9.237 26.375 10.1884 26.2662 11.0664 26.0506C8.50331 25.4848 6.37813 24.2227 4.69081 22.2643C3.0035 20.3059 2.15733 18.0071 2.15232 15.3679L2.15211 15.2609C2.95798 15.6161 3.76375 15.9177 4.56942 16.1658C5.37509 16.4139 6.25371 16.5371 7.20531 16.5353C5.73942 15.5394 4.54749 14.2578 3.62952 12.6902C2.71154 11.1227 2.25079 9.41165 2.24726 7.55707C2.24347 5.55982 2.7524 3.73992 3.77407 2.09738C6.56189 5.37328 9.93411 8.02393 13.8907 10.0493C17.8474 12.0747 22.1317 13.19 26.7436 13.3953C26.5224 12.5397 26.411 11.7196 26.4095 10.935C26.4067 9.43705 26.6968 8.02773 27.2799 6.707C27.863 5.38628 28.666 4.22564 29.6889 3.22506C30.7118 2.22449 31.8998 1.4376 33.2529 0.864382C34.606 0.291166 36.0511 0.0030967 37.5883 0.000174112C39.1987 -0.00288764 40.6998 0.297413 42.0918 0.901075C43.4837 1.50474 44.6931 2.34057 45.7199 3.40858C47.0371 3.19208 48.2809 2.8509 49.4512 2.38502C50.6215 1.91915 51.755 1.36418 52.8518 0.720124C51.9784 3.36101 50.3353 5.39705 47.9224 6.82825C50.2641 6.46715 52.4224 5.8924 54.3973 5.10401Z" fill="white"/>
</svg>
