<svg width="32" height="37" viewBox="0 0 32 37" fill="none" xmlns="http://www.w3.org/2000/svg">
<path d="M23.9548 0C25.0483 0 26.0782 0.2397 27.0445 0.7191C28.0108 1.1985 28.8564 1.85223 29.5811 2.68028C30.3059 3.50833 30.878 4.4744 31.2976 5.57847C31.7172 6.68254 31.927 7.85925 31.927 9.10859V27.3258C31.927 28.5751 31.7172 29.7591 31.2976 30.8777C30.878 31.9963 30.3059 32.9696 29.5811 33.7977C28.8564 34.6257 28.0108 35.2795 27.0445 35.7589C26.0782 36.2383 25.0483 36.478 23.9548 36.478H7.97221C6.87874 36.478 5.84883 36.2383 4.8825 35.7589C3.91618 35.2795 3.07064 34.6257 2.34589 33.7977C1.62114 32.9696 1.04898 31.9963 0.629385 30.8777C0.209795 29.7591 0 28.5751 0 27.3258V9.10859C0 7.85925 0.209795 6.68254 0.629385 5.57847C1.04898 4.4744 1.62114 3.50833 2.34589 2.68028C3.07064 1.85223 3.91618 1.1985 4.8825 0.7191C5.84883 0.2397 6.87874 0 7.97221 0H23.9548ZM10.9856 13.6847H6.98045V28.5025H10.9856V13.6847ZM9.00212 12.508C9.53614 12.508 10.0002 12.2901 10.3944 11.8542C10.7886 11.4184 10.9856 10.8809 10.9856 10.2417C10.9856 9.60252 10.7886 9.06501 10.3944 8.6292C10.0002 8.19338 9.53614 7.97547 9.00212 7.97547C8.44266 7.97547 7.96586 8.19338 7.5717 8.6292C7.17754 9.06501 6.98045 9.60252 6.98045 10.2417C6.98045 10.8809 7.17754 11.4184 7.5717 11.8542C7.96586 12.2901 8.44266 12.508 9.00212 12.508ZM24.9465 19.9169C24.9465 18.8709 24.6922 17.8467 24.1837 16.8444C23.6751 15.842 23.0139 15.0793 22.2001 14.5563C21.4627 14.0914 20.6044 13.8445 19.6254 13.8154C18.6463 13.7864 17.7627 13.9752 16.9743 14.382V13.6847H12.9692V28.5025H16.9743V19.4375L18.6145 18.5223C18.818 18.406 19.0977 18.3479 19.4537 18.3479C19.8097 18.3479 20.0768 18.4206 20.2548 18.5658C20.4073 18.653 20.5599 18.8419 20.7125 19.1324C20.8651 19.423 20.9414 19.6844 20.9414 19.9169V28.5025H24.9465V19.9169Z" fill="#79AC78"/>
</svg>
