<svg width="55" height="54" viewBox="0 0 55 54" fill="none" xmlns="http://www.w3.org/2000/svg">
<path d="M40.8361 -5.13586e-05C42.7013 -0.00359763 44.4588 0.341788 46.1084 1.0361C47.7581 1.73042 49.2022 2.67875 50.4407 3.88109C51.6793 5.08342 52.658 6.48704 53.3767 8.09193C54.0955 9.69682 54.4566 11.4081 54.4601 13.2257L54.5105 39.7288C54.5139 41.5464 54.1594 43.2696 53.4467 44.8983C52.7341 46.5271 51.7608 47.9449 50.5268 49.152C49.2929 50.359 47.8524 51.3128 46.2054 52.0134C44.5583 52.714 42.8022 53.0661 40.937 53.0696L13.6743 53.1214C11.8091 53.125 10.0516 52.7796 8.40197 52.0853C6.75231 51.391 5.3082 50.4426 4.06966 49.2403C2.83111 48.038 1.85243 46.6238 1.13361 44.9978C0.414787 43.3717 0.0536489 41.6499 0.0501932 39.8323L-0.000196028 13.3292C-0.00365175 11.5116 0.350957 9.799 1.06363 8.19139C1.7763 6.58378 2.74962 5.17645 3.98359 3.96941C5.21755 2.76237 6.65804 1.80856 8.30505 1.10798C9.95207 0.407394 11.7082 0.0553282 13.5734 0.0517819L40.8361 -5.13586e-05ZM18.7515 19.9511L11.9196 19.964L11.9605 41.5216L18.7925 41.5086L18.7515 19.9511ZM15.3648 18.2456C16.2757 18.2438 17.0668 17.9253 17.7379 17.29C18.409 16.6547 18.7437 15.872 18.742 14.9421C18.7402 14.0122 18.4025 13.2308 17.729 12.598C17.0554 11.9653 16.2632 11.6498 15.3523 11.6515C14.398 11.6533 13.5852 11.9719 12.9141 12.6072C12.2429 13.2425 11.9083 14.0251 11.91 14.9551C11.9118 15.885 12.2495 16.6664 12.923 17.2991C13.5966 17.9319 14.4105 18.2474 15.3648 18.2456ZM42.5829 28.9726C42.58 27.4509 42.1434 25.9617 41.2731 24.5051C40.4028 23.0484 39.2728 21.941 37.8833 21.1828C36.6241 20.5089 35.1594 20.1523 33.4893 20.1133C31.8192 20.0742 30.3124 20.3518 28.9688 20.9461L28.9669 19.9316L22.1349 19.9446L22.1759 41.5022L29.0078 41.4892L28.9828 28.301L31.7781 26.9642C32.1248 26.7945 32.6018 26.709 33.2091 26.7079C33.8163 26.7067 34.272 26.8115 34.576 27.0223C34.8365 27.1486 35.0973 27.4229 35.3584 27.8451C35.6195 28.2673 35.7503 28.6475 35.751 28.9856L35.7747 41.4763L42.6066 41.4634L42.5829 28.9726Z" fill="white"/>
</svg>
