<svg width="32" height="30" viewBox="0 0 32 30" fill="none" xmlns="http://www.w3.org/2000/svg">
<path d="M31.927 3.53013C30.9829 5.09907 29.8886 6.37384 28.6442 7.35443V8.38405C28.6442 10.8355 28.2365 13.3238 27.4212 15.8488C26.6058 18.3738 25.415 20.6537 23.8487 22.6884C22.2824 24.7231 20.3406 26.3901 18.0233 27.6894C15.706 28.9887 13.0454 29.6383 10.0416 29.6383C8.1534 29.6383 6.37253 29.3442 4.69893 28.7558C3.02534 28.1675 1.45903 27.334 0 26.2553C0.257476 26.3043 0.514952 26.3411 0.772427 26.3656C1.0299 26.3901 1.28738 26.4024 1.54485 26.4024C3.08971 26.4024 4.55947 26.1082 5.95413 25.5199C7.34879 24.9315 8.60398 24.147 9.71971 23.1665C8.26068 23.1174 6.98403 22.6149 5.88976 21.6588C4.79549 20.7027 4.03379 19.4647 3.60466 17.9448C3.81922 18.0429 4.02306 18.0919 4.21617 18.0919H4.82767C5.42845 18.0919 5.98631 18.0184 6.50126 17.8713C4.99932 17.479 3.75486 16.6088 2.76786 15.2604C1.78087 13.9121 1.28738 12.3309 1.28738 10.5168V10.4433C1.75942 10.6884 2.23146 10.8968 2.7035 11.0684C3.17553 11.24 3.69049 11.3258 4.24835 11.3258C3.3901 10.6394 2.69277 9.75688 2.15636 8.67823C1.61995 7.59958 1.35175 6.42287 1.35175 5.1481C1.35175 3.77527 1.65214 2.52502 2.25291 1.39734C3.88359 3.6527 5.85757 5.47905 8.17486 6.87639C10.4921 8.27373 13.0025 9.04595 15.706 9.19304C15.5773 8.60468 15.5129 8.04084 15.5129 7.50152C15.5129 6.4719 15.6846 5.50356 16.0279 4.59652C16.3712 3.68947 16.8432 2.89274 17.444 2.20633C18.0448 1.51992 18.7421 0.980591 19.536 0.588354C20.3299 0.196118 21.1774 0 22.0785 0C23.0226 0 23.9023 0.208375 24.7177 0.625126C25.533 1.04188 26.2411 1.61797 26.8419 2.35342C27.6143 2.20633 28.3438 1.97344 29.0304 1.65475C29.717 1.33605 30.3821 0.956076 31.0258 0.51481C30.5109 2.3289 29.5453 3.72624 28.1292 4.70683C29.5024 4.46169 30.7684 4.06945 31.927 3.53013Z" fill="#79AC78"/>
</svg>
