<svg width="55" height="54" viewBox="0 0 55 54" fill="none" xmlns="http://www.w3.org/2000/svg">
<path d="M27.1474 4.80875e-05C30.9122 -0.00710982 34.4512 0.681952 37.7643 2.06723C41.0774 3.45252 43.9696 5.34463 46.4407 7.74357C48.9119 10.1425 50.8646 12.943 52.2987 16.1452C53.7329 19.3473 54.4534 22.7827 54.4604 26.4514C54.4674 30.1201 53.7599 33.5688 52.338 36.7974C50.9161 40.0261 48.9741 42.8446 46.5121 45.2529C44.05 47.6612 41.1651 49.5643 37.8573 50.9622C34.5495 52.36 31.0131 53.0626 27.2483 53.0697C23.4835 53.0769 19.9553 52.3878 16.6638 51.0025C13.3724 49.6171 10.491 47.725 8.01986 45.3261C5.54867 42.9271 3.59599 40.116 2.16182 36.8928C0.727646 33.6696 0.00707151 30.2237 9.63701e-05 26.555C-0.00687877 22.8863 0.700608 19.4481 2.12256 16.2406C3.5445 13.033 5.4865 10.2251 7.94855 7.81676C10.4106 5.40843 13.2847 3.50536 16.5709 2.10753C19.8571 0.7097 23.3826 0.007206 27.1474 4.80875e-05ZM37.4253 11.5559L31.6483 11.5669C30.5231 11.5691 29.4849 11.7608 28.5336 12.1421C27.5823 12.5235 26.7502 13.0311 26.0374 13.665C25.3246 14.2989 24.7742 15.0168 24.3863 15.8187C23.9983 16.6207 23.8051 17.4223 23.8067 18.2235L23.813 21.5759L18.6851 21.5856L18.6976 28.164L23.8255 28.1543L23.8508 41.4375L30.6664 41.4245L30.6412 28.1413L35.7042 28.1317L35.6917 21.5533L30.6287 21.5629L30.6254 19.8551C30.6245 19.3491 30.8293 18.9481 31.2398 18.6521C31.6503 18.3561 32.0071 18.2079 32.31 18.2073L37.438 18.1975L37.4253 11.5559Z" fill="white"/>
</svg>
