<svg width="55" height="54" viewBox="0 0 55 54" fill="none" xmlns="http://www.w3.org/2000/svg">
<rect width="55" height="54" fill="#1E1E1E"/>
<g id="Home page">
<rect width="1512" height="6188" transform="translate(-668.585 -6068.44)" fill="white"/>
<rect id="Rectangle 40" x="-668.585" y="-306.438" width="1512" height="426" fill="#79AC78"/>
<g id="Group 56">
<g id="Group 25">
<g id="&#240;&#159;&#166;&#134; icon &#34;circle facebook&#34;">
<path id="Vector" d="M27.1977 0.0518331C30.9625 0.0446752 34.5015 0.733737 37.8146 2.11902C41.1277 3.5043 44.0198 5.39641 46.491 7.79536C48.9622 10.1943 50.9149 12.9948 52.349 16.197C53.7831 19.3991 54.5037 22.8345 54.5107 26.5032C54.5177 30.1719 53.8102 33.6206 52.3883 36.8492C50.9664 40.0779 49.0244 42.8963 46.5623 45.3047C44.1003 47.713 41.2154 49.6161 37.9076 51.014C34.5997 52.4118 31.0634 53.1143 27.2986 53.1215C23.5338 53.1287 20.0056 52.4396 16.7141 51.0542C13.4227 49.6689 10.5413 47.7768 8.07015 45.3779C5.59897 42.9789 3.64629 40.1678 2.21211 36.9446C0.777939 33.7214 0.0573645 30.2755 0.0503893 26.6067C0.0434142 22.938 0.7509 19.4999 2.17285 16.2924C3.5948 13.0848 5.53679 10.2769 7.99884 7.86854C10.4609 5.46022 13.335 3.55714 16.6212 2.15931C19.9073 0.761485 23.4329 0.058991 27.1977 0.0518331ZM37.4756 11.6077L31.6986 11.6187C30.5734 11.6208 29.5352 11.8126 28.5839 12.1939C27.6326 12.5752 26.8005 13.0829 26.0877 13.7167C25.3749 14.3506 24.8245 15.0686 24.4366 15.8705C24.0486 16.6725 23.8554 17.474 23.857 18.2753L23.8633 21.6277L18.7354 21.6374L18.7479 28.2158L23.8758 28.206L23.9011 41.4893L30.7167 41.4763L30.6915 28.1931L35.7545 28.1835L35.742 21.6051L30.679 21.6147L30.6757 19.9069C30.6748 19.4009 30.8796 18.9999 31.2901 18.7039C31.7006 18.4079 32.0574 18.2597 32.3603 18.2591L37.4883 18.2493L37.4756 11.6077Z" fill="white"/>
</g>
</g>
</g>
</g>
</svg>
