<svg width="203" height="69" viewBox="0 0 203 69" fill="none" xmlns="http://www.w3.org/2000/svg">
<rect width="203" height="69" rx="34.5" fill="#618264"/>
<path d="M59.2642 43V28.4545H65.0028C66.1061 28.4545 67.0459 28.6652 67.8224 29.0866C68.599 29.5033 69.1908 30.0833 69.598 30.8267C70.0099 31.5653 70.2159 32.4176 70.2159 33.3835C70.2159 34.3494 70.0076 35.2017 69.5909 35.9403C69.1742 36.679 68.5705 37.2543 67.7798 37.6662C66.9938 38.0781 66.0421 38.2841 64.9247 38.2841H61.267V35.8196H64.4276C65.0194 35.8196 65.5071 35.7178 65.8906 35.5142C66.2789 35.3059 66.5677 35.0194 66.7571 34.6548C66.9512 34.2855 67.0483 33.8617 67.0483 33.3835C67.0483 32.9006 66.9512 32.4792 66.7571 32.1193C66.5677 31.7547 66.2789 31.473 65.8906 31.2741C65.5024 31.0705 65.0099 30.9688 64.4134 30.9688H62.3395V43H59.2642ZM72.1566 43V32.0909H75.0898V33.9943H75.2035C75.4023 33.3172 75.7362 32.8059 76.2049 32.4602C76.6737 32.1098 77.2134 31.9347 77.8242 31.9347C77.9757 31.9347 78.1391 31.9441 78.3143 31.9631C78.4895 31.982 78.6433 32.008 78.7759 32.0412V34.7259C78.6339 34.6832 78.4374 34.6454 78.1864 34.6122C77.9355 34.5791 77.7058 34.5625 77.4975 34.5625C77.0524 34.5625 76.6547 34.6596 76.3043 34.8537C75.9587 35.0431 75.6841 35.3082 75.4805 35.6491C75.2816 35.9901 75.1822 36.383 75.1822 36.8281V43H72.1566ZM84.804 43.2131C83.6818 43.2131 82.7159 42.9858 81.9062 42.5312C81.1013 42.072 80.4811 41.4233 80.0455 40.5852C79.6098 39.7424 79.392 38.7457 79.392 37.5952C79.392 36.473 79.6098 35.4882 80.0455 34.6406C80.4811 33.7931 81.0942 33.1326 81.8849 32.6591C82.6804 32.1856 83.6132 31.9489 84.6832 31.9489C85.4029 31.9489 86.0729 32.0649 86.6932 32.2969C87.3182 32.5241 87.8627 32.8674 88.3267 33.3267C88.7955 33.786 89.16 34.3636 89.4205 35.0597C89.6809 35.7509 89.8111 36.5606 89.8111 37.4886V38.3196H80.5994V36.4446H86.9631C86.9631 36.009 86.8684 35.6231 86.679 35.2869C86.4896 34.9508 86.2268 34.688 85.8906 34.4986C85.5592 34.3045 85.1733 34.2074 84.733 34.2074C84.2737 34.2074 83.8665 34.3139 83.5114 34.527C83.161 34.7353 82.8864 35.017 82.6875 35.3722C82.4886 35.7225 82.3868 36.1132 82.3821 36.544V38.3267C82.3821 38.8665 82.4815 39.3329 82.6804 39.7259C82.884 40.1188 83.1705 40.4219 83.5398 40.6349C83.9091 40.848 84.3471 40.9545 84.8537 40.9545C85.1899 40.9545 85.4976 40.9072 85.777 40.8125C86.0563 40.7178 86.2955 40.5758 86.4943 40.3864C86.6932 40.197 86.8447 39.965 86.9489 39.6903L89.7472 39.875C89.6051 40.5473 89.3139 41.1345 88.8736 41.6364C88.438 42.1335 87.8745 42.5218 87.1832 42.8011C86.4967 43.0758 85.7036 43.2131 84.804 43.2131ZM91.7855 43V32.0909H94.669V34.0156H94.7969C95.0241 33.3764 95.4029 32.8722 95.9332 32.5028C96.4635 32.1335 97.098 31.9489 97.8366 31.9489C98.5848 31.9489 99.2216 32.1359 99.7472 32.5099C100.273 32.8793 100.623 33.3812 100.798 34.0156H100.912C101.134 33.3906 101.537 32.8911 102.119 32.517C102.706 32.1383 103.4 31.9489 104.2 31.9489C105.218 31.9489 106.045 32.2732 106.679 32.9219C107.318 33.5658 107.638 34.4796 107.638 35.6634V43H104.619V36.2599C104.619 35.6539 104.458 35.1993 104.136 34.8963C103.814 34.5933 103.412 34.4418 102.929 34.4418C102.38 34.4418 101.951 34.617 101.643 34.9673C101.336 35.313 101.182 35.7699 101.182 36.3381V43H98.2486V36.196C98.2486 35.661 98.0947 35.2348 97.7869 34.9176C97.4839 34.6004 97.0838 34.4418 96.5866 34.4418C96.2505 34.4418 95.9474 34.527 95.6776 34.6974C95.4124 34.8632 95.2017 35.0975 95.0455 35.4006C94.8892 35.6989 94.8111 36.0492 94.8111 36.4517V43H91.7855ZM110.028 43V32.0909H113.053V43H110.028ZM111.548 30.6847C111.098 30.6847 110.712 30.5355 110.39 30.2372C110.073 29.9342 109.914 29.572 109.914 29.1506C109.914 28.7339 110.073 28.3764 110.39 28.0781C110.712 27.7751 111.098 27.6236 111.548 27.6236C111.997 27.6236 112.381 27.7751 112.698 28.0781C113.02 28.3764 113.181 28.7339 113.181 29.1506C113.181 29.572 113.02 29.9342 112.698 30.2372C112.381 30.5355 111.997 30.6847 111.548 30.6847ZM122.473 38.3551V32.0909H125.498V43H122.593V41.0185H122.48C122.234 41.6577 121.824 42.1714 121.251 42.5597C120.683 42.9479 119.989 43.142 119.17 43.142C118.441 43.142 117.799 42.9763 117.245 42.6449C116.691 42.3134 116.258 41.8423 115.946 41.2315C115.638 40.6207 115.482 39.8892 115.477 39.0369V32.0909H118.502V38.4972C118.507 39.1411 118.68 39.6501 119.021 40.0241C119.362 40.3982 119.819 40.5852 120.392 40.5852C120.756 40.5852 121.097 40.5024 121.414 40.3366C121.732 40.1662 121.987 39.9152 122.181 39.5838C122.38 39.2524 122.477 38.8428 122.473 38.3551ZM127.918 43V32.0909H130.802V34.0156H130.93C131.157 33.3764 131.536 32.8722 132.066 32.5028C132.596 32.1335 133.231 31.9489 133.969 31.9489C134.718 31.9489 135.354 32.1359 135.88 32.5099C136.406 32.8793 136.756 33.3812 136.931 34.0156H137.045C137.267 33.3906 137.67 32.8911 138.252 32.517C138.839 32.1383 139.533 31.9489 140.333 31.9489C141.351 31.9489 142.177 32.2732 142.812 32.9219C143.451 33.5658 143.771 34.4796 143.771 35.6634V43H140.752V36.2599C140.752 35.6539 140.591 35.1993 140.269 34.8963C139.947 34.5933 139.545 34.4418 139.062 34.4418C138.513 34.4418 138.084 34.617 137.776 34.9673C137.469 35.313 137.315 35.7699 137.315 36.3381V43H134.381V36.196C134.381 35.661 134.228 35.2348 133.92 34.9176C133.617 34.6004 133.217 34.4418 132.719 34.4418C132.383 34.4418 132.08 34.527 131.81 34.6974C131.545 34.8632 131.335 35.0975 131.178 35.4006C131.022 35.6989 130.944 36.0492 130.944 36.4517V43H127.918Z" fill="white"/>
</svg>
